<svg width="55" height="15" viewBox="0 0 55 15" fill="none" xmlns="http://www.w3.org/2000/svg">
<path d="M50.25 13.79L55 9.04004L50.25 4.29004V13.79Z" fill="#333333"/>
<path d="M5.21827 13.29H6.49227V7.77404C7.17827 7.00404 7.82227 6.61204 8.39627 6.61204C9.37627 6.61204 9.82427 7.21404 9.82427 8.64204V13.29H11.0983V7.77404C11.8123 7.00404 12.4143 6.61204 13.0023 6.61204C13.9823 6.61204 14.4303 7.21404 14.4303 8.64204V13.29H15.7043V8.47404C15.7043 6.54204 14.9483 5.50604 13.3943 5.50604C12.4703 5.50604 11.6723 6.10804 10.8743 6.94804C10.5803 6.05204 9.95027 5.50604 8.78827 5.50604C7.87827 5.50604 7.08027 6.08004 6.42227 6.79404H6.38027L6.25427 5.68804H5.21827V13.29ZM22.5332 13.486C24.3952 13.486 26.0472 12.016 26.0472 9.51004C26.0472 6.96204 24.3952 5.50604 22.5332 5.50604C20.6572 5.50604 19.0052 6.96204 19.0052 9.51004C19.0052 12.016 20.6572 13.486 22.5332 13.486ZM22.5332 12.422C21.2032 12.422 20.3212 11.246 20.3212 9.51004C20.3212 7.74604 21.2032 6.57004 22.5332 6.57004C23.8492 6.57004 24.7312 7.74604 24.7312 9.51004C24.7312 11.246 23.8492 12.422 22.5332 12.422ZM29.4694 13.29H30.7434V8.41804C31.2474 7.11604 32.0314 6.65404 32.6614 6.65404C32.9694 6.65404 33.1374 6.69604 33.4034 6.78004L33.6414 5.66004C33.3894 5.54804 33.1654 5.50604 32.8294 5.50604C31.9754 5.50604 31.1914 6.10804 30.6734 7.07404H30.6314L30.5054 5.68804H29.4694V13.29ZM39.1718 13.486C40.2078 13.486 41.0058 13.136 41.6778 12.702L41.2158 11.848C40.6558 12.226 40.0538 12.464 39.3258 12.464C37.8698 12.464 36.8898 11.414 36.7918 9.80404H41.9158C41.9578 9.60804 41.9718 9.34204 41.9718 9.07604C41.9718 6.89204 40.8798 5.50604 38.9478 5.50604C37.1978 5.50604 35.5318 7.03204 35.5318 9.51004C35.5318 12.002 37.1418 13.486 39.1718 13.486ZM36.7778 8.88004C36.9458 7.38204 37.8978 6.52804 38.9618 6.52804C40.1658 6.52804 40.8518 7.35404 40.8518 8.88004H36.7778Z" fill="#333333"/>
</svg>
