<svg width="201" height="48" viewBox="0 0 201 48" fill="none" xmlns="http://www.w3.org/2000/svg">
<rect x="0.5" width="200" height="48" fill="#333333"/>
<path d="M178 31L184 25L178 19V31Z" fill="white"/>
<path d="M23.96 18.952H20.536L20.648 19.4H24.376L24.392 20.36C23.992 25.608 21 30.312 17.496 32.248L17.608 32.424C21.304 30.968 24.088 28.2 25.288 24.968C26.072 28.248 28.504 31.208 30.632 32.44C30.984 31.384 31.576 30.792 32.52 30.68L32.568 30.504C27.912 28.568 25.368 25.336 24.888 20.44V19.896C25.864 19.8 26.632 19.592 26.936 19.224L24.776 17.656L23.96 18.952ZM35.864 21.576L36.008 22.024H47.752V21.576H35.864ZM46.68 21.576C46.536 26.152 46.248 29.4 45.64 29.912C45.464 30.072 45.304 30.12 45 30.12C44.536 30.12 43.112 30.024 42.136 29.96V30.168C43.032 30.328 43.832 30.616 44.168 30.92C44.504 31.224 44.616 31.704 44.6 32.296C45.832 32.296 46.536 32.056 47.128 31.48C48.072 30.584 48.424 27.544 48.6 22.36C48.984 22.312 49.192 22.2 49.32 22.056L47.56 20.504L46.504 21.576H46.68ZM40.824 17.464C40.808 23.352 41.128 28.28 35.176 32.184L35.336 32.424C42.968 29.192 42.792 24.056 42.904 18.152C43.304 18.104 43.448 17.96 43.496 17.704L40.824 17.464ZM60.072 22.888L59.912 23C60.968 24.136 62.216 25.848 62.584 27.336C64.44 28.664 65.736 24.712 60.072 22.888ZM64.872 20.472V29.944C64.872 30.184 64.776 30.312 64.472 30.312C63.944 30.312 61.768 30.168 61.768 30.168V30.376C62.792 30.552 63.224 30.776 63.56 31.08C63.896 31.368 64.008 31.816 64.104 32.44C66.456 32.216 66.776 31.448 66.776 30.152V21.224C67.096 21.176 67.32 21.032 67.432 20.904L65.592 19.464L64.712 20.472H64.872ZM53.752 20.472V32.408H54.056C54.856 32.408 55.64 31.944 55.64 31.72V20.92H65.672V20.472H55.784L53.752 19.64V20.472ZM59.16 17.432C59.112 21.928 59.064 25.176 55.784 27.704L55.944 27.944C60.824 25.864 60.936 22.584 61.096 18.072C61.48 18.024 61.64 17.848 61.672 17.624L59.16 17.432ZM74.28 30.776V31.224H81.304V30.776H74.28ZM80.168 27.272V32.328H80.488C81.08 32.328 82.008 31.976 82.024 31.848V27.96C82.296 27.896 82.472 27.784 82.552 27.672L80.84 26.376L80.024 27.272H80.168ZM73.56 27.272V32.456H73.832C74.584 32.456 75.4 32.04 75.4 31.88V27.72H81.496V27.272H75.496L73.56 26.504V27.272ZM74.92 20.44C74.36 21.656 73.128 23.384 71.8 24.424L71.944 24.616C73.768 23.96 75.544 22.728 76.488 21.608C76.872 21.64 77 21.528 77.08 21.368L74.92 20.44ZM72.36 19.448V19.896H83.672V19.448H72.36ZM76.792 17.4V19.736H78.728V18.056C79.16 17.976 79.288 17.816 79.32 17.592L76.792 17.4ZM72.344 18.376C72.36 19.352 71.704 20.28 71.144 20.632C70.648 20.904 70.344 21.368 70.552 21.928C70.808 22.52 71.624 22.616 72.104 22.232C72.824 21.688 73.272 20.312 72.568 18.376H72.344ZM82.952 19.448C82.824 20.072 82.472 21.112 82.216 21.752L82.36 21.848C83.144 21.464 84.168 20.792 84.76 20.264C85.08 20.232 85.256 20.2 85.384 20.072L83.72 18.504L82.776 19.448H82.952ZM78.632 20.792L78.504 20.936C79.672 21.64 81.112 22.936 81.752 24.072C83.72 24.84 84.312 21 78.632 20.792ZM78.344 23.512C79.368 25.688 81.528 27.448 84.008 28.408C84.12 27.72 84.616 26.936 85.4 26.696L85.416 26.44C83.016 26.008 80.056 24.936 78.6 23.336C79.112 23.272 79.304 23.192 79.368 22.984L76.616 22.312C75.944 24.312 73.032 27.128 70.232 28.568L70.328 28.76C73.56 27.768 76.888 25.608 78.344 23.512ZM89.448 20.008C90.008 20.472 90.552 20.904 91.672 20.872C93.144 20.824 95.304 20.216 96.264 19.832C96.792 19.592 96.952 19.384 97.16 19.384C97.736 19.384 98.216 19.56 98.216 20.12C98.216 20.36 98.088 20.6 97.656 20.824C96.856 21.24 94.024 22.216 91.24 22.216C89.992 22.216 89.656 21.4 89.224 20.136L89.448 20.008ZM96.68 28.408C96.68 28.968 96.392 29.368 95.848 29.368C95.368 29.368 94.952 29.112 94.952 28.472C94.952 27.88 95.064 26.824 95.048 25.752C95.032 24.456 94.856 23.976 94.104 23.976C93.288 23.976 92.28 25.128 91.736 25.816C91.144 26.536 90.664 27.528 90.056 27.56C89.496 27.576 89.256 27.112 89.24 26.472C89.24 25.912 89.768 25.608 90.408 24.952C92.328 23.032 93.448 20.44 93.64 19.592C93.704 19.336 93.704 19.144 93.416 18.952C93.176 18.808 92.872 18.68 92.456 18.536L92.472 18.312C92.84 18.152 93.32 17.976 93.64 17.992C94.312 17.992 95.592 18.216 95.592 18.76C95.592 18.984 95.48 19.112 95.32 19.416C95.112 19.816 94.824 20.36 94.6 20.792C94.328 21.272 93.832 22.344 92.744 23.864C92.664 23.96 92.728 24.04 92.856 23.96C93.416 23.592 93.944 23.336 94.584 23.336C95.624 23.336 96.28 23.992 96.456 25.112C96.68 26.184 96.68 27.64 96.68 28.408ZM99.032 21.88C99.816 21.928 100.232 22.008 100.632 22.248C101.192 22.552 101.88 23.352 101.88 23.96C101.88 24.44 101.416 24.424 100.616 24.648C99.112 25.064 96.68 25.928 95.288 26.632C93.832 27.4 92.616 28.36 92.616 29.272C92.616 29.912 93.224 30.376 94.776 30.376C97.16 30.376 98.104 29.848 98.744 29.848C99.512 29.848 100.232 30.024 100.232 30.712C100.232 31.16 100.04 31.432 99.448 31.608C98.712 31.832 97.192 32.04 95.832 32.04C92.712 32.04 91.72 30.92 91.72 29.512C91.72 28.024 93.72 26.504 95.448 25.464C96.648 24.76 98.616 23.896 99.576 23.32C99.848 23.16 99.896 22.984 99.688 22.744C99.528 22.536 99.176 22.312 98.904 22.152L99.032 21.88ZM112.328 19.688V20.152H119.192V19.688H112.328ZM115.912 20.568C115.832 21.336 115.656 22.424 115.464 23.144H115.848C116.472 22.616 117.08 21.912 117.496 21.368C117.848 21.368 118.024 21.224 118.072 21.016L115.912 20.568ZM113.352 22.952V23.4H119.848C120.072 23.4 120.232 23.32 120.28 23.144C119.672 22.616 118.68 21.88 118.68 21.88L117.8 22.952H113.352ZM113.384 25.512V25.976H119.592C119.8 25.976 119.96 25.896 120.008 25.72C119.464 25.176 118.536 24.424 118.536 24.424L117.72 25.512H113.384ZM113.384 28.104V28.552H119.624C119.832 28.552 120.008 28.472 120.04 28.296C119.496 27.768 118.568 27 118.568 27L117.752 28.104H113.384ZM113.352 30.84V31.304H120.152C120.376 31.304 120.552 31.224 120.6 31.048C119.976 30.456 118.968 29.624 118.968 29.624L118.056 30.84H113.352ZM115.48 22.952V31.064H117.128V22.952H115.48ZM114.04 22.952H114.248L113.272 22.584L112.392 24.04V32.424H112.696C113.528 32.424 114.04 32.04 114.04 31.912V22.952ZM118.488 19.688C118.376 20.216 118.12 21.176 117.976 21.704L118.136 21.8C118.728 21.464 119.592 20.856 120.088 20.456C120.408 20.44 120.568 20.408 120.696 20.28L119.176 18.824L118.312 19.688H118.488ZM105.512 18.936L105.64 19.4H111.64C111.88 19.4 112.04 19.32 112.088 19.144C111.432 18.568 110.392 17.768 110.392 17.768L109.464 18.936H105.512ZM107.384 18.936C107.112 21.96 106.536 25.16 105.368 27.512L105.592 27.672C107.64 25.384 108.76 22.536 109.208 19.192V18.936H107.384ZM107.448 23.656V24.104H110.312V23.656H107.448ZM107.432 29.32V29.768H110.328V29.32H107.432ZM109.496 23.656V31.128H109.768C110.312 31.128 111.112 30.776 111.128 30.664V24.28C111.352 24.216 111.528 24.12 111.608 24.024L110.104 22.872L109.352 23.656H109.496ZM108.232 23.656H108.44L107.496 23.272L106.648 24.552V31.864H106.936C107.736 31.864 108.232 31.496 108.232 31.384V23.656ZM114.632 17.4C114.2 19.976 113.048 23.304 111.016 25.432L111.16 25.592C113.96 23.848 115.544 20.84 116.36 18.392C116.776 18.376 116.904 18.264 116.968 18.072L114.632 17.4ZM112.344 18.824C112.376 19.512 111.896 20.232 111.432 20.504C110.968 20.744 110.664 21.16 110.824 21.672C111.032 22.232 111.752 22.328 112.184 22.04C112.824 21.608 113.208 20.44 112.584 18.824H112.344ZM129.592 18.552L129.736 19.016H136.632V18.552H129.592ZM135.784 18.552C135.72 21.592 135.592 23.032 135.272 23.32C135.176 23.416 135.064 23.448 134.84 23.448C134.552 23.448 133.816 23.416 133.4 23.384L133.384 23.592C133.896 23.704 134.28 23.896 134.488 24.136C134.68 24.36 134.712 24.792 134.712 25.304C135.496 25.304 136.056 25.112 136.504 24.76C137.208 24.184 137.4 22.84 137.496 19.288C137.816 19.224 138.008 19.144 138.12 19L136.52 17.688L135.624 18.552H135.784ZM129.784 20.28L129.672 20.44C130.936 20.984 132.696 22.104 133.528 23.064C135.416 23.4 135.32 19.88 129.784 20.28ZM131.528 25.016L131.416 25.16C132.28 25.608 133.336 26.52 133.736 27.352C135.432 28.008 135.944 24.68 131.528 25.016ZM135.752 26.824L135.576 26.904C136.056 27.896 136.52 29.256 136.504 30.456C137.96 31.912 139.736 28.76 135.752 26.824ZM131.848 18.552C131.656 21.416 131.08 23.56 128.984 25.272L129.128 25.48C132.456 24.088 133.368 21.816 133.784 18.808V18.552H131.848ZM131.224 26.392V30.68C131.224 31.736 131.432 32.072 132.712 32.072H133.8C135.672 32.072 136.28 31.688 136.28 31.048C136.28 30.744 136.184 30.552 135.768 30.376L135.72 28.84H135.544C135.336 29.528 135.128 30.136 135 30.328C134.904 30.456 134.824 30.472 134.696 30.488C134.568 30.488 134.296 30.488 133.976 30.488H133.192C132.872 30.488 132.824 30.424 132.824 30.248V26.984C133.128 26.936 133.272 26.792 133.304 26.584L131.224 26.392ZM130.088 26.936C130.168 27.816 129.64 28.776 129.192 29.16C128.744 29.448 128.488 29.912 128.728 30.408C129 30.952 129.8 30.968 130.184 30.552C130.728 29.96 130.968 28.664 130.328 26.936H130.088ZM123.768 18.616L123.896 19.064H128.408C128.632 19.064 128.776 18.984 128.824 18.808C128.248 18.28 127.32 17.512 127.32 17.512L126.488 18.616H123.768ZM123.72 22.712L123.848 23.16H128.44C128.664 23.16 128.824 23.08 128.856 22.904C128.312 22.392 127.416 21.656 127.416 21.656L126.616 22.712H123.72ZM123.72 24.792L123.848 25.24H128.44C128.664 25.24 128.824 25.16 128.856 24.984C128.312 24.472 127.416 23.736 127.416 23.736L126.616 24.792H123.72ZM122.968 20.632L123.096 21.08H129.224C129.448 21.08 129.608 21 129.656 20.824C129.08 20.296 128.136 19.544 128.136 19.544L127.304 20.632H122.968ZM123.72 26.952V32.44H123.96C124.664 32.44 125.384 32.056 125.384 31.912V27.416H127.848V26.952H125.448L123.72 26.248V26.952ZM126.952 26.952V31.832H127.24C127.816 31.832 128.616 31.48 128.632 31.352V27.656C128.936 27.592 129.128 27.464 129.224 27.352L127.592 26.12L126.808 26.952H126.952ZM124.568 30.424V30.872H127.816V30.424H124.568ZM141.336 20.856C141.32 21.208 141.32 21.64 141.416 22.008C141.592 22.632 142.52 23.48 143.16 23.48C143.72 23.48 144.04 23.144 144.808 22.92C145.768 22.648 147.592 22.216 149.768 22.04C152.84 21.768 153.88 22.232 154.616 22.232C155.096 22.232 155.4 22.136 155.4 21.608C155.4 20.856 154.344 20.392 153.48 20.392C153.224 20.392 152.872 20.616 149.48 21C148.136 21.128 143.8 21.704 142.936 21.688C142.392 21.672 142.136 21.4 141.576 20.744L141.336 20.856ZM146.84 18.968C147.288 19.032 147.672 19.112 147.944 19.24C148.2 19.352 148.28 19.448 148.312 19.72C148.472 20.808 148.632 23.704 148.648 24.312L149.944 25.56C149.88 23.912 149.928 21.016 150.008 20.264C150.04 19.864 150.312 19.528 150.312 19.096C150.312 18.584 149.16 18.152 148.264 18.152C147.72 18.152 147.192 18.472 146.824 18.744L146.84 18.968ZM147.96 23.704C146.648 23.704 145.672 24.76 145.672 26.184C145.672 27.784 146.84 29.128 148.456 28.664C147.832 30.168 146.2 31.208 144.248 31.896L144.376 32.2C147.88 31.704 150.6 30.008 150.6 26.68C150.6 25.096 149.896 23.704 147.96 23.704ZM147.752 27.352C147.016 27.352 146.504 26.728 146.504 26.008C146.504 25.176 147.048 24.536 147.8 24.536C148.472 24.536 148.76 25.176 148.76 25.976C148.76 26.904 148.504 27.352 147.752 27.352ZM162.04 18.904C162.312 19.416 162.696 19.896 163.112 19.896C163.704 19.896 165.384 19.48 166.232 19.208C166.872 19 166.856 18.776 167.192 18.776C167.96 18.776 169.224 19.784 169.224 20.456C169.224 20.904 168.648 21.032 168.12 21.4C167.064 22.104 165.096 23.8 164.488 24.424C164.312 24.6 164.408 24.712 164.568 24.664C165.112 24.488 166.008 24.136 167.256 24.136C169.416 24.136 171.208 25.48 171.192 27.88C171.176 30.024 169.272 31.736 165.976 31.736C164.12 31.736 162.728 30.92 162.728 29.544C162.728 28.472 163.672 27.784 164.856 27.784C166.008 27.784 167.416 28.472 167.704 30.232L166.2 30.52C166.056 29.336 165.368 28.536 164.44 28.536C163.832 28.536 163.448 28.856 163.448 29.352C163.448 29.944 164.168 30.328 165.4 30.328C168.376 30.328 169.512 28.904 169.528 27.304C169.544 25.88 168.6 24.808 166.76 24.808C164.568 24.808 163.048 26.392 161.688 28.152C161.304 28.664 161.128 28.792 160.744 28.792C160.392 28.776 160.04 28.36 160.072 27.752C160.104 27.32 160.344 26.952 160.888 26.456C162.456 24.92 165.8 21.736 166.648 20.616C166.92 20.264 166.744 20.136 166.488 20.184C165.896 20.296 164.92 20.84 164.296 21.192C163.992 21.368 163.736 21.624 163.384 21.624C162.456 21.624 161.736 20.536 161.688 19.96C161.656 19.608 161.704 19.32 161.816 18.936L162.04 18.904Z" fill="white"/>
</svg>
