<svg width="120" height="36" viewBox="0 0 120 36" fill="none" xmlns="http://www.w3.org/2000/svg">
<path d="M1 1H119V35H1V1Z" stroke="#EDA184" stroke-width="2"/>
<path d="M96 18L91.1822 23.0783L90.9217 13.1822L96 18Z" fill="#EDA184"/>
<path d="M25.548 22.352H34.44V23.216H25.548V22.352ZM24.684 13.712H35.304V14.564H24.684V13.712ZM25.056 15.764H25.932V23.96H25.056V15.764ZM34.08 15.764H34.968V23.924H34.08V15.764ZM29.496 13.976H30.408V16.292H29.496V13.976ZM29.556 16.22H30.348V20.972H29.556V16.22ZM27.84 18.956V20.528H32.076V18.956H27.84ZM27.84 16.664V18.224H32.076V16.664H27.84ZM27.072 15.896H32.868V21.296H27.072V15.896ZM41.652 12.944L42.528 13.1C41.892 14.216 40.968 15.452 39.684 16.448C39.528 16.268 39.24 16.04 39.024 15.932C40.26 15.056 41.16 13.88 41.652 12.944ZM41.712 13.7H44.616V14.396H41.16L41.712 13.7ZM40.86 15.956V17.312H46.188V15.956H40.86ZM40.032 15.284H47.064V17.972H40.032V15.284ZM43.068 15.56H43.884V17.6H43.068V15.56ZM43.116 17.384L43.824 17.672C42.84 18.584 41.196 19.412 39.828 19.904C39.708 19.748 39.468 19.436 39.3 19.28C40.668 18.872 42.24 18.176 43.116 17.384ZM41.856 18.668L42.444 18.284C44.736 19.94 44.796 22.832 43.764 23.6C43.416 23.888 43.092 23.96 42.612 23.972C42.36 23.972 42.024 23.972 41.676 23.948C41.676 23.732 41.604 23.396 41.46 23.168C41.844 23.204 42.204 23.216 42.444 23.216C42.744 23.216 42.96 23.192 43.176 23.012C43.896 22.496 43.836 20.156 41.856 18.668ZM42.924 19.148L43.476 19.52C42.648 20.276 41.088 21.152 39.864 21.608C39.768 21.416 39.576 21.152 39.396 20.984C40.596 20.648 42.168 19.844 42.924 19.148ZM43.548 20.432L44.148 20.864C43.14 21.908 41.232 23.072 39.672 23.66C39.564 23.444 39.36 23.156 39.18 22.988C40.704 22.508 42.636 21.428 43.548 20.432ZM46.776 18.344L47.412 18.872C46.788 19.424 45.948 20.024 45.312 20.408L44.784 19.916C45.408 19.532 46.284 18.836 46.776 18.344ZM44.448 17.516C44.952 19.784 46.008 21.824 47.604 22.736C47.412 22.904 47.136 23.216 47.004 23.444C45.324 22.376 44.256 20.204 43.704 17.66L44.448 17.516ZM44.328 13.7H44.52L44.676 13.64L45.228 14.024C44.856 14.696 44.28 15.428 43.812 15.896C43.692 15.74 43.452 15.488 43.296 15.368C43.68 14.972 44.112 14.324 44.328 13.856V13.7ZM38.784 12.992L39.624 13.22C38.94 15.296 37.872 17.408 36.684 18.812C36.6 18.596 36.36 18.116 36.204 17.888C37.26 16.688 38.208 14.84 38.784 12.992ZM37.824 15.932L38.652 15.104L38.676 15.128V23.96H37.824V15.932ZM53.52 13.52C53.412 13.988 53.28 14.648 52.968 15.452C52.668 16.184 52.224 16.988 51.744 17.612C52.212 17.336 52.896 17.168 53.424 17.168C54.348 17.168 55.068 17.72 55.068 18.692C55.068 19.316 55.092 20.696 55.104 21.44H54.18C54.228 20.804 54.24 19.568 54.228 18.944C54.216 18.248 53.736 17.924 53.112 17.924C52.344 17.924 51.588 18.308 51.036 18.8C50.688 19.136 50.352 19.568 49.956 20.06L49.128 19.448C50.856 17.792 51.66 16.4 52.068 15.38C52.332 14.72 52.5 14 52.536 13.436L53.52 13.52ZM49.404 14.816C50.052 14.9 50.88 14.936 51.432 14.936C53.052 14.936 55.128 14.84 56.82 14.54V15.428C55.14 15.68 52.908 15.788 51.384 15.788C50.868 15.788 50.076 15.764 49.404 15.716V14.816ZM58.572 17.708C58.272 17.804 57.84 17.972 57.516 18.092C56.664 18.428 55.524 18.884 54.36 19.484C53.172 20.108 52.332 20.756 52.332 21.584C52.332 22.52 53.256 22.664 54.492 22.664C55.428 22.664 56.724 22.556 57.78 22.364L57.744 23.336C56.832 23.444 55.5 23.54 54.456 23.54C52.752 23.54 51.372 23.168 51.372 21.716C51.372 20.252 52.86 19.352 54.288 18.62C55.428 18.032 56.4 17.66 57.192 17.288C57.552 17.12 57.852 16.988 58.188 16.82L58.572 17.708ZM63.084 16.148V17.384H68.904V16.148H63.084ZM63.084 18.14V19.388H68.904V18.14H63.084ZM63.084 14.156V15.38H68.904V14.156H63.084ZM62.208 13.352H69.816V20.204H62.208V13.352ZM66.768 19.616H67.68V22.604C67.68 22.952 67.776 23.012 68.292 23.012C68.544 23.012 69.756 23.012 70.08 23.012C70.572 23.012 70.656 22.808 70.704 21.308C70.896 21.476 71.292 21.62 71.544 21.68C71.436 23.432 71.172 23.876 70.152 23.876C69.9 23.876 68.448 23.876 68.208 23.876C67.068 23.876 66.768 23.6 66.768 22.604V19.616ZM63.876 19.868H64.848C64.596 22.004 63.876 23.312 60.984 23.972C60.9 23.744 60.648 23.372 60.468 23.18C63.108 22.652 63.672 21.62 63.876 19.868ZM74.856 14.168C75.12 14.192 75.456 14.204 75.696 14.204C76.332 14.204 79.176 14.12 79.812 14.06C80.172 14.024 80.34 14 80.472 13.952L81.024 14.66C80.808 14.804 80.568 14.96 80.34 15.14C79.752 15.596 78.12 17 77.184 17.768C77.736 17.588 78.312 17.528 78.852 17.528C80.844 17.528 82.272 18.716 82.272 20.336C82.272 22.268 80.676 23.528 78.132 23.528C76.5 23.528 75.504 22.82 75.504 21.812C75.504 20.996 76.248 20.252 77.352 20.252C78.948 20.252 79.752 21.38 79.836 22.592L78.972 22.736C78.9 21.716 78.312 20.984 77.352 20.984C76.8 20.984 76.38 21.32 76.38 21.74C76.38 22.328 77.04 22.676 77.988 22.676C80.028 22.676 81.312 21.836 81.312 20.336C81.312 19.148 80.184 18.272 78.612 18.272C76.62 18.272 75.54 19.112 74.028 20.66L73.332 19.964C74.328 19.148 75.876 17.852 76.56 17.264C77.232 16.712 78.744 15.452 79.344 14.912C78.708 14.948 76.308 15.044 75.684 15.08C75.408 15.104 75.144 15.116 74.88 15.152L74.856 14.168Z" fill="black"/>
</svg>
