<svg xmlns="http://www.w3.org/2000/svg" width="70.24mm" height="6.73mm" viewBox="0 0 199.1 19.09"><defs><style>.cls-1{fill:#231815;}.cls-2{fill:#e60019;}</style></defs><g id="レイヤー_2" data-name="レイヤー 2"><g id="レイヤー_1-2" data-name="レイヤー 1"><path class="cls-1" d="M64,4.46c.62,0,.89,0,1.07.14a.84.84,0,0,1,.42.71.92.92,0,0,1-.4.72c-.2.13-.47.13-1.09.13h-10V7.1H64c.61,0,.87,0,1.08.13a.86.86,0,0,1,.41.7.87.87,0,0,1-.41.68c-.21.13-.45.13-1.08.13H53.92v1.32H65.63c.91,0,1.52,0,1.52.89s-.61.86-1.52.86H58.91a10.24,10.24,0,0,0,1.66,2.43,16.63,16.63,0,0,0,2.71-1.34c.53-.3.73-.43,1-.43a.87.87,0,0,1,.87.94c0,.47-.27.64-.77,1a15.07,15.07,0,0,1-2.23,1.15A12.86,12.86,0,0,0,66.39,17a.86.86,0,0,1,.76.86.91.91,0,0,1-.87.91,11.13,11.13,0,0,1-5.77-2.12,11.27,11.27,0,0,1-3.6-4.82h-3v4.56c.9-.13,2.48-.51,2.8-.6a3,3,0,0,1,.89-.21.9.9,0,0,1,.89.87c0,.75-.78,1-1.91,1.24a24.44,24.44,0,0,1-5.29.89,1,1,0,0,1-1.12-.93.82.82,0,0,1,.61-.86c.06,0,.89-.12,1.34-.17V11.81H51.3c-.91,0-1.53,0-1.53-.86s.62-.89,1.53-.89h.83V3.41a1.52,1.52,0,0,1,1.62-1.62H64.51c.62,0,.88,0,1.07.13a.84.84,0,0,1,.42.74,1,1,0,0,1-.4.71c-.21.13-.47.13-1.09.13H54.43c-.21,0-.51,0-.51.64v.32Z"/><path class="cls-1" d="M71.7,6a20,20,0,0,1-.82,5.45.89.89,0,0,1-.9.64.83.83,0,0,1-.83-.79,18.38,18.38,0,0,1,.45-1.91A20.57,20.57,0,0,0,70,5.86a1.12,1.12,0,0,1,.15-.72,1,1,0,0,1,1-.39C71.68,4.86,71.7,5.41,71.7,6Zm5,1.6c.26,1.62.38,3.17.38,3.36a.9.9,0,0,1-.86,1,1,1,0,0,1-.86-.65c-.07-.31-.37-3.36-.44-4,0-.23-.21-1.23-.21-1.41a.77.77,0,0,1,.9-.72C76.24,5.25,76.37,5.56,76.7,7.57Zm.89-4.45c0-.77,0-1,.26-1.24a1,1,0,0,1,.7-.26.93.93,0,0,1,.81.43,2.09,2.09,0,0,1,.13,1.07V17c0,.79,0,1-.26,1.24a.9.9,0,0,1-.7.26,1,1,0,0,1-.81-.41c-.13-.21-.13-.47-.13-1.09Zm4.57,3.21a21.31,21.31,0,0,1,.42,3.18c0,.27.1,1.1.1,1.32s0,1-.79,1a1,1,0,0,1-.93-.73c0-.13-.32-3.26-.41-3.88,0-.25-.29-1.29-.29-1.51a.78.78,0,0,1,.93-.74C81.94,5.05,82.05,5.65,82.16,6.33Zm3.12,10.83c0,.79,0,1-.26,1.25a1,1,0,0,1-.67.26.94.94,0,0,1-.77-.41c-.13-.21-.13-.47-.13-1.1V2.8c0-.77,0-1,.26-1.24a.93.93,0,0,1,.66-.26,1,1,0,0,1,.78.41c.13.21.13.47.13,1.09Zm-11.16-5.5a11.25,11.25,0,0,1-.51,3.19c-.81,2.24-2.63,3.93-3.28,3.93a1,1,0,0,1-1-1,.86.86,0,0,1,.29-.65c1.62-1.67,2.18-2.27,2.52-4.42a9.92,9.92,0,0,0,.19-1.79v-8c0-.62,0-.89.13-1.07a.89.89,0,0,1,.76-.44.87.87,0,0,1,.73.42c.13.2.13.47.13,1.09Z"/><path class="cls-1" d="M98.77,4.31l-.43,1.57H94L93.5,4.31ZM95,9.74a2.15,2.15,0,0,0,.2-.74,1,1,0,0,0-1-.94.86.86,0,0,0-.79.6,7.17,7.17,0,0,1-1.17,2c-.71.87-.77.94-.77,1.27a.91.91,0,0,0,.9.9,1,1,0,0,0,.72-.34,9.83,9.83,0,0,0,.84-1h3v1.61H93.89c-.62,0-.88,0-1.09.13a.88.88,0,0,0-.4.69.85.85,0,0,0,.42.72c.19.13.45.13,1.07.13H97v1.7H92.56c-.63,0-.89,0-1.09.13a.91.91,0,0,0-.42.79.89.89,0,0,0,.26.66c.27.26.46.26,1.25.26H103c.63,0,.88,0,1.07-.13a.91.91,0,0,0,.44-.79,1,1,0,0,0-.26-.66c-.29-.26-.47-.26-1.25-.26H98.88v-1.7h3.45c.63,0,.89,0,1.08-.13a.86.86,0,0,0,.41-.7.87.87,0,0,0-.41-.71c-.21-.13-.45-.13-1.08-.13H98.88V11.45h4c.63,0,.89,0,1.09-.13a.9.9,0,0,0,.4-.71.88.88,0,0,0-.42-.74c-.18-.13-.44-.13-1.07-.13h-4c0-.72,0-1-.13-1.17a1,1,0,0,0-1.67,0C97,8.78,97,9,97,9.74Zm-5.31-7.2c-.63,0-.89,0-1.1.13a.91.91,0,0,0-.42.76.9.9,0,0,0,.42.75c.21.13.47.13,1.1.13h2l.47,1.57H91.07a1.47,1.47,0,0,0-1.62,1.54,19,19,0,0,1-1.09,7.73c-.1.22-.61,1.2-.7,1.39a1,1,0,0,0-.1.47.89.89,0,0,0,1,.92c.4,0,1.19,0,2.18-4.16A24.4,24.4,0,0,0,91.28,8c0-.28.09-.28.51-.32h11.45c.77,0,1,0,1.25-.26a1,1,0,0,0,.26-.66.93.93,0,0,0-.42-.79c-.21-.13-.47-.13-1.09-.13h-3l.43-1.57h2c.62,0,.88,0,1.09-.13a.88.88,0,0,0,.41-.75,1,1,0,0,0-.41-.76c-.21-.13-.47-.13-1.09-.13H97.21v-.3a1,1,0,0,0-1-1.1,1,1,0,0,0-1,1.1v.3Z"/><path class="cls-1" d="M113.31,7.27a13.43,13.43,0,0,0-.55-1.38h4.39c-.23.63-.24.68-.47,1.38Zm-4.49,0a2.18,2.18,0,0,0-1.09.13.78.78,0,0,0-.4.66.81.81,0,0,0,.4.66,2.18,2.18,0,0,0,1.09.13h5.07V10H109.4a2.09,2.09,0,0,0-1.07.13.89.89,0,0,0-.41.7.86.86,0,0,0,.41.7c.21.13.45.13,1.07.13h4.49v1.1h-5.8c-.67,0-.93,0-1.12.13a.81.81,0,0,0,0,1.39c.19.13.47.13,1.12.13h3.11a14.25,14.25,0,0,1-3,1.79c-.21.08-1.3.55-1.39.61a.81.81,0,0,0-.42.73.91.91,0,0,0,.88.94c.89,0,3.6-1.67,3.79-1.79a17.26,17.26,0,0,0,2.72-2.28h.07v2.73c0,.66,0,1.51,1,1.51s1.06-.73,1.06-1.51V14.41H116a9,9,0,0,0,4.66,3.45,10.87,10.87,0,0,0,2,.51.9.9,0,0,0,.89-.87c0-.73-.55-.88-1.1-1a7.39,7.39,0,0,1-4-2.06h3.36c.65,0,.9,0,1.11-.13a.81.81,0,0,0,.39-.7.82.82,0,0,0-.39-.69c-.21-.13-.48-.13-1.11-.13h-5.94v-1.1h4.63c.61,0,.87,0,1.08-.13a.87.87,0,0,0,.41-.7.93.93,0,0,0-.41-.7c-.21-.13-.45-.13-1.08-.13h-4.63V8.85h5.24a2.11,2.11,0,0,0,1.07-.13.75.75,0,0,0,.39-.66.82.82,0,0,0-.39-.66c-.2-.13-.47-.13-1.09-.13h-2.49c.17-.38.55-1.24.6-1.38h2.86a2.25,2.25,0,0,0,1.1-.13.83.83,0,0,0,.4-.71.87.87,0,0,0-.4-.72,2.21,2.21,0,0,0-1.1-.13h-1.56c.15-.24.61-.94.7-1.11.23-.38.27-.49.27-.66a1,1,0,0,0-1-.91,1,1,0,0,0-.85.61c-.58,1.11-1.09,1.94-1.16,2.07h-1.12V2.84c0-.85,0-.94-.13-1.13a.9.9,0,0,0-.77-.45.89.89,0,0,0-.75.43c-.14.21-.14.51-.14,1.15V4.2h-1.37V2.84c0-.79,0-1-.27-1.24a.9.9,0,0,0-.67-.26.8.8,0,0,0-.74.43c-.13.21-.13.43-.13,1.07V4.2h-1c-.2-.43-.67-1.28-.74-1.4-.64-1-.77-1.26-1.3-1.26a.89.89,0,0,0-.9.89,1.67,1.67,0,0,0,.33.79,10.56,10.56,0,0,1,.58,1H108c-.6,0-.87,0-1.07.13a.84.84,0,0,0,0,1.43,2.23,2.23,0,0,0,1.09.13h2.75c.15.35.21.44.62,1.38Z"/><path class="cls-1" d="M136.15,11.83a14.94,14.94,0,0,1-2.47,4.11c-1.07,1.15-1.36,1.15-1.64,1.15a.85.85,0,0,1-.9-.87c0-.36,0-.36.9-1.35a14.77,14.77,0,0,0,2.85-4.77h-1.77c-.63,0-.89,0-1.1-.13a.93.93,0,0,1-.41-.74.88.88,0,0,1,.43-.75c.19-.13.45-.13,1.08-.13h3V5.93h-2.07c-.57,1.36-.81,1.79-1.46,1.79a.9.9,0,0,1-1-.85c0-.22,0-.3.39-1a12.51,12.51,0,0,0,1.1-3.36c.13-.66.55-.83.81-.83a1,1,0,0,1,1,1,6.53,6.53,0,0,1-.26,1.58h1.49V3c0-.62,0-.88.13-1.09a1,1,0,0,1,.81-.42.89.89,0,0,1,.68.27C138,2,138,2.18,138,3V4.24h2.56c.62,0,.88,0,1.09.13a.9.9,0,0,1,.39.72.81.81,0,0,1-.41.71c-.19.13-.45.13-1.07.13H138V8.35h2.76c.78,0,1,0,1.25.28a.84.84,0,0,1,.26.6.93.93,0,0,1-.28.62c-.27.25-.45.25-1.23.25h-1.33A15.47,15.47,0,0,0,142,14.77c.68.73,1,1,1,1.52a.82.82,0,0,1-.81.83c-.72,0-1.19-.65-2.43-2.35A16.79,16.79,0,0,1,138,11.4v5.89c0,.63,0,.89-.14,1.08a.91.91,0,0,1-.81.43.94.94,0,0,1-.68-.26c-.26-.28-.26-.47-.26-1.25Zm-6.42,5.46c0,.63,0,.87-.14,1.08a.82.82,0,0,1-.74.41.9.9,0,0,1-.71-.41c-.13-.19-.13-.45-.13-1.08v-6a11.08,11.08,0,0,1-1.3,2.13,1,1,0,0,1-.83.51.8.8,0,0,1-.85-.83c0-.3.08-.41.75-1.43a18.13,18.13,0,0,0,1.7-3.52c.08-.25.38-1.32.44-1.55h-1c-.63,0-.87,0-1.08-.13a.92.92,0,0,1-.43-.77,1,1,0,0,1,.41-.76c.21-.13.47-.13,1.1-.13h1V3.07c0-.62,0-.87.13-1.08a.8.8,0,0,1,.74-.41.88.88,0,0,1,.71.41c.14.19.14.46.14,1.08V4.82h.49c.61,0,.88,0,1.07.13a.91.91,0,0,1,.43.78.94.94,0,0,1-.41.75,2.16,2.16,0,0,1-1.09.13h-.49v.11a12.88,12.88,0,0,0,1.9,3.66c.6.81.65.91.65,1.18a.86.86,0,0,1-.92.87c-.65,0-.94-.49-1.63-1.69Z"/><path class="cls-1" d="M156.3,6.46c.32,8.14,2.7,9.82,3,9.82s.29-.17.34-.68c0-.32.13-2,.13-2.09a.86.86,0,0,1,.83-.64c.89,0,.89.83.89,1.35,0,1.76-.24,4.4-1.81,4.4a3,3,0,0,1-1.71-.78c-1.32-1.28-2.43-3.11-3.13-7.63a31.37,31.37,0,0,1-.4-3.75h-8.74c-.62,0-.87,0-1.07-.13a.89.89,0,0,1-.44-.77,1,1,0,0,1,.42-.76c.21-.13.47-.13,1.09-.13h8.72a11.61,11.61,0,0,1,.08-2.62.84.84,0,0,1,.83-.68,1.09,1.09,0,0,1,.73.3c.23.23.23.36.23,1v2h2.79A20.58,20.58,0,0,1,157.88,3c-.36-.47-.45-.56-.45-.86a.87.87,0,0,1,.89-.89,1.2,1.2,0,0,1,1,.59c.18.24,1.31,1.56,1.31,2.05a.85.85,0,0,1-.43.79c.21,0,1.08,0,1.08.91a.91.91,0,0,1-.42.75c-.2.13-.47.13-1.09.13Zm-6.1,8.89c1.2-.24,1.6-.36,3.1-.77a1.55,1.55,0,0,1,.48-.08.93.93,0,0,1,.86.91c0,.73-.58.9-1.9,1.26a44.5,44.5,0,0,1-7.61,1.38.91.91,0,0,1-1-1c0-.85.67-.93,1.07-1,1.64-.17,1.75-.19,3.21-.42v-4.8h-2.29c-.62,0-.88,0-1.09-.14a.92.92,0,0,1-.42-.77.88.88,0,0,1,.42-.75c.21-.13.47-.13,1.09-.13h6.28c.62,0,.88,0,1.09.13a.92.92,0,0,1,.42.77.88.88,0,0,1-.42.75c-.21.14-.47.14-1.09.14H150.2Z"/><path class="cls-1" d="M164.61,12.53c-.68,0-1,0-1.22-.27a1.07,1.07,0,0,1-.28-.66,1,1,0,0,1,.43-.75,2,2,0,0,1,1.07-.15h13.81c.69,0,1,0,1.23.26a1.09,1.09,0,0,1,.28.66,1,1,0,0,1-.43.76,2,2,0,0,1-1.08.15h-8.68c-.21.66-1.17,2.92-1.56,3.76,2.2-.13,3.5-.2,6.63-.46l1-.08c-.15-.21-.87-1.09-1-1.26a.87.87,0,0,1-.23-.59.92.92,0,0,1,.94-.94c.32,0,.47,0,1.19.91a31.68,31.68,0,0,1,2.39,3.2,1.29,1.29,0,0,1,.27.72,1,1,0,0,1-.93,1,1,1,0,0,1-.68-.29l-.71-1.05c-1.92.32-9.68.85-10.18.88-.35,0-2,.15-2.32.15-.92,0-1.12-.58-1.12-1a.9.9,0,0,1,.82-.91c.21,0,1.23-.08,1.85-.12a29.52,29.52,0,0,0,1.64-3.88Zm7.22-9.08c-.22-.16-.3-.16-.38-.16s-.34.1-.65.32a67.46,67.46,0,0,1-6,3.91c-.56.31-.72.39-1,.39a.94.94,0,0,1-.91-1c0-.53.22-.66,1.24-1.2a44.23,44.23,0,0,0,5.52-3.58,3,3,0,0,1,1.81-.79c.68,0,1.23.39,3.13,1.75a53.82,53.82,0,0,0,4.81,3c.39.19.81.4.81,1a1,1,0,0,1-1,1c-.2,0-.34,0-1.5-.69a42.67,42.67,0,0,1-4.22-2.74ZM175,6.72c.74,0,1,0,1.25.28a1,1,0,0,1,.26.67,1,1,0,0,1-.43.79c-.21.15-.47.15-1.08.15h-7.47c-.74,0-1,0-1.25-.28a.9.9,0,0,1-.26-.66,1,1,0,0,1,.41-.8c.23-.15.49-.15,1.1-.15Z"/><path class="cls-1" d="M184.76,12.09c-.51.51-1.62,1.53-2.14,1.53a.91.91,0,0,1-.91-1c0-.47.19-.62,1.41-1.54a10.91,10.91,0,0,0,3.51-4.79c0-.15-.06-.19-.34-.19h-2.81c-.62,0-.88,0-1.09-.13a1,1,0,0,1-.15-1.45c.26-.27.47-.27,1.24-.27h1.28V2.88c0-.6,0-.89.13-1.07a1,1,0,0,1,.76-.44.9.9,0,0,1,.64.26c.26.27.26.48.26,1.25V4.29h1.13a1.14,1.14,0,0,1,1.14,1.17,10,10,0,0,1-1.57,3.64,15,15,0,0,1,1.21,1.3c1,1.2,1.11,1.28,1.11,1.71a1,1,0,0,1-.94,1,1,1,0,0,1-.85-.52c-.17-.2-1-1.27-1.15-1.5v6.24c0,.79,0,1-.27,1.24a.88.88,0,0,1-.71.28c-.89,0-.89-.69-.89-1.52Zm8.22,4.3V7.76H190.5c-.63,0-.9,0-1.1-.13a1,1,0,0,1-.41-.79.91.91,0,0,1,.25-.68c.27-.27.46-.27,1.26-.27H193v-3c0-.83,0-1.53,1-1.53s.92.76.92,1.53v3h2.34c.62,0,.88,0,1.09.14a1,1,0,0,1,.15,1.47c-.26.26-.45.26-1.24.26h-2.34v8.63h2.72c.62,0,.88,0,1.07.14a.94.94,0,0,1,.43.8.93.93,0,0,1-.26.68c-.29.26-.48.26-1.24.26h-7.5c-.63,0-.89,0-1.1-.13a.92.92,0,0,1-.41-.81,1,1,0,0,1,.26-.68c.27-.26.46-.26,1.25-.26Z"/><path class="cls-2" d="M8.35,7.16H16.7V2.38H8.35a8.36,8.36,0,0,0,0,16.71H16.7V14.31H8.35a3.58,3.58,0,1,1,0-7.15Z"/><path class="cls-2" d="M35.79,7.16h8.35V2.38H35.79a8.36,8.36,0,0,0,0,16.71h8.35V14.31H35.79a3.58,3.58,0,1,1,0-7.15Z"/><rect class="cls-2" x="19.09" width="7.16" height="19.09"/></g></g></svg>