<svg xmlns="http://www.w3.org/2000/svg" width="170" height="30"><path d="M23.196 18.271v6.1l.006.018a.867.867 0 00.868.868v.012h1.676v3.67H15.601v-3.668h-.006v-4.97a2.331 2.331 0 00-4.651 0l-.028.038v4.032l.013.038a.866.866 0 00.866.867v-.005h1.562v3.67H0v-3.67h2.466l.019.007a.868.868 0 00.868-.867h.012v-5.3h-.012a.868.868 0 00-.868-.868l-.019-.013H0v-3.669h10.908v.918s-.241 1.453 2.054.267a9.494 9.494 0 015.2-1.185s5.034-.229 5.034 3.71zm144.255 0v6.1l.005.018a.869.869 0 00.87.868v.012h1.676v3.67h-10.146v-3.668h-.007v-4.97a2.331 2.331 0 00-4.651 0l-.026.038v4.032l.012.038a.867.867 0 00.867.867v-.005h1.563v3.67h-13.359v-3.67h2.467l.019.007a.867.867 0 00.868-.867h.014v-5.3h-.014a.868.868 0 00-.868-.868l-.019-.013h-2.467v-3.669h10.912v.918s-.243 1.453 2.049.267a9.495 9.495 0 015.2-1.185s5.035-.229 5.035 3.71zm-83.305.002v6.1l.006.018a.868.868 0 00.866.867v.012h1.856v3.67H76.549v-3.67h-.007v-4.971a2.331 2.331 0 00-4.649 0l-.025.038v4.036l.011.038a.867.867 0 00.866.867v-.007h1.282v3.67H61.434v-3.67h1l.02.007a.868.868 0 00.868-.867h.012V5.031h-.012a.867.867 0 00-.868-.866l-.02-.013h-1v-2.74h10.421v14.072s-.241 1.453 2.052.267a9.489 9.489 0 015.2-1.185s5.039-.233 5.039 3.707zM39.02 25.275a.867.867 0 01-.866-.867l-.013-.038v-6.157l-.007.019v-3.669H27.581v3.671h2.109l.019.012a.866.866 0 01.866.868h.014v5.3h-.014a.866.866 0 01-.866.867l-.019-.007h-2.109v3.67h12.49v-3.67H39.02zM33.497 1.25a4.326 4.326 0 104.324 4.326 4.325 4.325 0 00-4.324-4.326zm66.831 24.025a.868.868 0 01-.87-.867l-.012-.038v-6.157l-.006.019v-3.669H88.888v3.671h2.109l.019.012a.866.866 0 01.866.868h.013v5.3h-.013a.866.866 0 01-.866.867l-.019-.007h-2.109v3.67h12.492v-3.67h-1.052zM94.8 1.25a4.326 4.326 0 104.329 4.326A4.326 4.326 0 0094.8 1.25zM54.791 20.641h5.2v-6.042h-5.2v1.212s.089.943-1.719-.127a8.752 8.752 0 00-7.393-.026 7.39 7.39 0 00-3.488 6.47s-.23 6.806 8.768 6.806c0 0 9.05.275 9.05-6.123h-4.97s-.1 2.3-2.244 2.3c0 0-2.675.28-2.675-3.569 0 0-.255-3.289 2.4-3.289a2.2 2.2 0 012.271 2.388zm61.283 0h5.2v-6.042h-5.2v1.212s.09.943-1.721-.127a8.751 8.751 0 00-7.394-.026 7.39 7.39 0 00-3.491 6.474s-.228 6.806 8.77 6.806c0 0 9.048.275 9.048-6.123h-4.972s-.1 2.3-2.241 2.3c0 0-2.677.28-2.677-3.569 0 0-.256-3.289 2.4-3.289a2.2 2.2 0 012.278 2.384zm21.553-5.519a49.908 49.908 0 00-8.873 0s-5.522.4-5.522 6.82 3.867 6.583 5.522 6.811a55.145 55.145 0 008.873 0c1.656-.228 5.524-.4 5.524-6.811s-5.524-6.82-5.524-6.82zm-4.436 10.248s-2.626.319-2.626-3.428 2.626-3.429 2.626-3.429 2.626-.319 2.626 3.429-2.626 3.428-2.626 3.428z" fill="#003288"/><path fill="none" d="M0 0h170v30H0z"/></svg>