<svg xmlns="http://www.w3.org/2000/svg" width="120" height="23.2" viewBox="0 0 120 23.2"><defs><style>.a{fill:#005eb8}</style></defs><path class="a" d="M11.6 18.4a6.8 6.8 0 1 1 6.8-6.8 6.743 6.743 0 0 1-6.8 6.8m0 4.8A11.6 11.6 0 1 0 0 11.6a11.739 11.739 0 0 0 11.6 11.6m75.963 0a11.6 11.6 0 1 1 11.6-11.6 11.608 11.608 0 0 1-11.6 11.6m0-4.8a6.8 6.8 0 1 0-6.8-6.8 6.872 6.872 0 0 0 6.8 6.8M26.001.7v21.8h4.8V4.7h5.3v17.9h4.8V4.7h1.9a3.328 3.328 0 0 1 3.3 3.3v14.4h4.8V8.2a7.534 7.534 0 0 0-7.6-7.6h-12.3a41.308 41.308 0 0 0-5 .1zM101.7.7v21.8h4.8V4.7h5.4a3.328 3.328 0 0 1 3.3 3.3v14.4h4.8V8.2a7.534 7.534 0 0 0-7.6-7.6h-6a36.879 36.879 0 0 0-4.7.1zM55.207.7v21.8h4.8V4.7h5.9a3.328 3.328 0 0 1 3.3 3.3 3.471 3.471 0 0 1-3.3 3.3h-4.2l7.4 11.2h6l-5.4-7.9a7.17 7.17 0 0 0 4.4-6.6 7.427 7.427 0 0 0-7.5-7.5h-6.5c-1.6 0-3.2.1-4.9.2z"/></svg>